<?xml version="1.0" encoding="utf-8"?>
<!-- Generator: Adobe Illustrator 24.0.1, SVG Export Plug-In . SVG Version: 6.00 Build 0)  -->
<svg version="1.1" id="Layer_1" xmlns="http://www.w3.org/2000/svg" xmlns:xlink="http://www.w3.org/1999/xlink" x="0px" y="0px"
	 viewBox="0 0 624.18 203.56" style="enable-background:new 0 0 624.18 203.56;" xml:space="preserve">
<style type="text/css">
	.st0{fill:#FFCC00;}
	.st1{fill:#000263;}
	.st2{fill:none;}
</style>
<path class="st0" d="M207.74,44.48v114.61c0,23.4-19.14,42.54-42.54,42.54H50.59c-2.18,0-4.31-0.17-6.4-0.5
	c-20.39-3.09-36.14-20.82-36.14-42.04V44.48c0-23.4,19.14-42.54,42.54-42.54H165.2c18.03,0,33.54,11.36,39.68,27.29
	C206.74,33.97,207.74,39.11,207.74,44.48z"/>
<g>
	<g>
		<path d="M441.5,124.83l2.54-0.01l0.08,22.1l-42.79,0.16c-2.36,0.01-4.38-0.69-5.98-2.11c-1.78-1.59-2.61-3.65-2.68-6.43
			l-0.01-3.72l14.72-0.06c-0.31-3.37,0.51-5.79,2.57-7.63c1.65-1.48,3.6-2.2,5.96-2.21l8.63-0.03l0.01,2.6l-8.63,0.03
			c-2.96,0.01-6.67,2.39-5.88,7.23l15.66-0.06c3.49-0.01,5.43-2.5,5.95-4.93l2.6-0.01c-0.23,1.83-0.93,3.43-2.11,4.79
			c-1.59,1.78-3.6,2.67-6.37,2.68l-30.38,0.12c-0.75,4.73,2.98,7.2,5.94,7.19l40.25-0.15L441.5,124.83z"/>
		<path d="M478.23,134.57c2.19,0.23,3.91,1.05,5.27,2.58c1.42,1.59,2.14,3.54,2.15,5.96l0.01,3.66l-41.61,0.16l-0.01-2.54
			l39.24-0.15c0.28-3.25-1.27-6.61-5.05-7.07L478.23,134.57z M470.9,134.89l-2.43-2.36l2.41-2.43l2.43,2.41L470.9,134.89z"/>
		<path d="M500.17,124.61l2.54-0.01l0.05,13.53c0.01,2.3-0.69,4.32-2.11,5.92c-1.59,1.78-3.65,2.67-6.43,2.68l-8.63,0.03l-0.01-2.54
			l8.63-0.03c3.96-0.01,6.02-3.39,6.01-6.11L500.17,124.61z"/>
		<path d="M527.49,147.79c0.01,2.3-0.69,4.26-2.11,5.92c-1.41,1.54-3.12,2.38-5.31,2.62l-0.01-2.6c3.25-0.54,4.89-3.5,4.88-5.93
			l-0.03-8.63l2.54-0.01L527.49,147.79z"/>
		<path d="M550.72,134.17c4.67,0.1,7.99,2.04,9.77,5.7c1.67,3.24,1.68,7.44,0.04,10.7c-0.88,1.78-2.06,3.08-3.65,4.09
			c-1.71,1.07-3.72,1.61-6.08,1.62l-13.54,0.05l-0.01-2.54l13.48-0.05c5.85-0.02,8.49-5.12,8.3-7.24l-18.09,0.07
			c-2.01,0.01-3.49-0.64-4.62-1.87c-1.01-1.12-1.55-2.54-1.55-4.25c-0.01-1.71,0.52-3.13,1.52-4.32c1.12-1.25,2.59-1.84,4.6-1.91
			L550.72,134.17z M559.15,143.95c-0.19-2.19-2.33-7.2-8.48-7.18l-9.75,0.04c-2.3,0.01-3.6,2.02-3.59,3.62
			c0.01,1.54,1.31,3.6,3.62,3.59L559.15,143.95z"/>
		<path d="M579.35,124.31l0.09,23.29c0.02,4.79-2.51,8.58-7.42,8.6l-0.01-2.48c3.84-0.01,4.89-3.09,4.88-7.29
			c-2.78,0.25-5.32-0.45-7.16-2.1c-1.72-1.59-2.61-3.65-2.62-6.43l-0.02-4.96c-0.01-2.36-1.67-5.31-4.93-5.89l-0.01-2.6
			c2.19,0.23,3.9,1.05,5.27,2.58c1.49,1.65,2.2,3.6,2.21,5.9l0.02,4.96c0.02,4.67,4.46,6.6,7.23,5.88l-0.07-19.44L579.35,124.31z"/>
		<path d="M607.45,134.02c5.44-0.02,8.64,3.81,8.66,8.6l0.01,3.66l-19.86,0.08c0.02,5.32,2.8,6.55,5.23,7.07l0.01,2.6
			c-1.89-0.23-3.43-0.87-4.79-2.05c-1.9-1.83-2.97-4.24-2.98-7.61l-14.36,0.05l-0.01-2.54l14.36-0.05
			c-0.01-3.37,1.04-5.74,2.93-7.58c1.65-1.48,3.6-2.2,5.96-2.21L607.45,134.02z M613.69,143.74c0.4-3.9-1.5-7.15-6.23-7.19
			l-4.96,0.02c-2.48,0.07-6.26,1.27-6.24,7.23L613.69,143.74z M604.99,124.69l2.43,2.41l-2.41,2.37l-2.43-2.35L604.99,124.69z"/>
	</g>
	<g>
		<g>
			<path class="st1" d="M267.44,56.23c-0.71-1.23-2.12-1.85-4.24-1.85h-1.51v-1.51h30.18c4.29,0,6.43,2.02,6.43,6.05v5.67h-1.51
				c0-5.8-3.15-8.7-9.45-8.7h-12.03v20.04h17.09v3.03h-17.09v23.83h-6.81V61.94C268.5,59.37,268.15,57.47,267.44,56.23z"/>
			<path class="st1" d="M310.63,56.23c-0.71-1.23-2.12-1.85-4.24-1.85h-1.51v-1.51h6.81c1.86,0,3.26,0.24,4.2,0.72
				c0.93,0.48,1.6,1.35,2,2.61c0.4,1.26,0.6,3.18,0.6,5.75v40.84h-6.81V61.94C311.69,59.37,311.34,57.47,310.63,56.23z"/>
			<path class="st1" d="M332.34,101.08c-2.52-1.64-4.44-3.87-5.75-6.69s-1.97-5.95-1.97-9.38s0.66-6.55,1.97-9.38
				c1.31-2.82,3.23-5.05,5.75-6.69s5.5-2.46,8.93-2.46s6.4,0.82,8.92,2.46c2.52,1.64,4.44,3.87,5.75,6.69s1.97,5.95,1.97,9.38
				s-0.66,6.56-1.97,9.38s-3.23,5.06-5.75,6.69c-2.52,1.64-5.5,2.46-8.92,2.46C337.83,103.54,334.86,102.72,332.34,101.08z
				 M346.22,98.47c1.44-1.36,2.55-3.23,3.33-5.6c0.78-2.37,1.17-4.99,1.17-7.87c0-2.87-0.39-5.5-1.17-7.87s-1.89-4.24-3.33-5.6
				c-1.44-1.36-3.09-2.04-4.95-2.04c-1.87,0-3.52,0.68-4.95,2.04c-1.44,1.36-2.55,3.23-3.33,5.6c-0.78,2.37-1.17,4.99-1.17,7.87
				c0,2.87,0.39,5.5,1.17,7.87s1.89,4.24,3.33,5.6c1.44,1.36,3.09,2.04,4.95,2.04C343.13,100.52,344.78,99.83,346.22,98.47z"/>
			<path class="st1" d="M361.42,69.96c-1.13-1.16-2.64-1.74-4.5-1.74v-1.59c0.25,0,0.63-0.02,1.13-0.08
				c0.5-0.05,1.01-0.08,1.51-0.08c2.72,0,5.13,0.69,7.22,2.08s3.84,3.85,5.26,7.37l6.43,15.88l6.43-16.26
				c-1.21-2.67-2.36-4.56-3.44-5.67c-1.08-1.11-2.46-1.66-4.12-1.66v-1.59c0.25,0,0.63-0.02,1.13-0.08c0.5-0.05,1.01-0.08,1.51-0.08
				c2.72,0,5.13,0.69,7.22,2.08s3.84,3.85,5.26,7.37l6.43,15.88l9.83-24.58h3.78l-14.75,36.31h-1.51l-9.46-23.45l-9.45,23.45h-1.51
				l-10.97-27.61C363.7,73.11,362.56,71.12,361.42,69.96z"/>
			<path class="st1" d="M420.99,101.08c-2.37-1.64-4.16-3.86-5.37-6.66s-1.82-5.94-1.82-9.42c0-3.43,0.61-6.55,1.82-9.38
				c1.21-2.82,2.96-5.05,5.26-6.69c2.29-1.64,4.98-2.46,8.06-2.46c5.09,0,8.89,1.43,11.38,4.27c2.5,2.85,3.74,6.97,3.74,12.37
				l-0.15,3.03h-22.92c0,4.24,0.91,7.69,2.72,10.36s4.31,4.01,7.49,4.01c2.37,0,4.37-0.5,6.01-1.51s3.16-2.52,4.58-4.54l1.51,1.13
				c-1.66,2.77-3.61,4.79-5.82,6.05c-2.22,1.26-4.82,1.89-7.79,1.89C426.25,103.54,423.36,102.72,420.99,101.08z M434.9,72.98
				c-1.31-2.32-3.3-3.48-5.98-3.48c-1.51,0-2.87,0.59-4.08,1.78s-2.16,2.81-2.84,4.88s-1.02,4.39-1.02,6.96h15.88
				C436.87,78.68,436.21,75.3,434.9,72.98z"/>
			<path class="st1" d="M449.27,70.6c-0.71-1.23-2.12-1.85-4.24-1.85h-0.76v-1.51h6.05c1.92,0,3.37,0.26,4.35,0.79
				s1.68,1.4,2.08,2.61h0.38c0.91-1.16,2.13-2.14,3.67-2.95s3.34-1.21,5.41-1.21c2.02,0,3.53,0.38,4.54,1.13
				c0.86,0.66,1.74,1.79,2.65,3.4l-3.03,2.27c-0.56-0.76-1.36-1.32-2.42-1.7c-1.06-0.38-2.27-0.57-3.63-0.57
				c-1.51,0-2.9,0.34-4.16,1.02s-2.27,1.6-3.03,2.76v27.99h-6.81V76.31C450.33,73.74,449.98,71.84,449.27,70.6z"/>
			<path class="st1" d="M494.13,56.23c-0.71-1.23-2.12-1.85-4.24-1.85h-1.51v-1.51h6.81c1.87,0,3.26,0.24,4.2,0.72
				c0.93,0.48,1.6,1.35,2,2.61c0.4,1.26,0.61,3.18,0.61,5.75v37.82h26.85v3.03h-33.66V61.94C495.18,59.37,494.83,57.47,494.13,56.23
				z"/>
			<path class="st1" d="M531.87,70.6c-0.71-1.23-2.12-1.85-4.24-1.85h-1.51v-1.51h6.81c1.87,0,3.26,0.24,4.2,0.72
				c0.93,0.48,1.6,1.35,2,2.61s0.61,3.18,0.61,5.75v26.47h-6.81V76.31C532.93,73.74,532.58,71.84,531.87,70.6z M532.81,61.26
				c-0.83-0.96-1.25-2.09-1.25-3.4c0-1.06,0.31-1.89,0.95-2.5c0.63-0.6,1.48-0.91,2.53-0.91c1.16,0,2.16,0.48,2.99,1.44
				s1.25,2.09,1.25,3.4c0,1.06-0.32,1.89-0.95,2.5c-0.63,0.6-1.47,0.91-2.53,0.91C534.64,62.7,533.65,62.22,532.81,61.26z"/>
			<path class="st1" d="M547.45,70.6c-0.71-1.23-2.12-1.85-4.24-1.85h-1.51v-1.51h6.81c1.87,0,3.29,0.25,4.27,0.76
				c0.98,0.5,1.7,1.26,2.16,2.27h0.38c1.06-1.06,2.43-1.95,4.12-2.69c1.69-0.73,3.59-1.1,5.71-1.1c3.78,0,6.87,1.01,9.27,3.03
				c2.39,2.02,3.59,5.55,3.59,10.59v22.69h-6.81v-22.7c0-3.53-0.79-6.11-2.38-7.75s-3.57-2.46-5.94-2.46
				c-2.67,0-5.19,1.34-7.56,4.01v28.89h-6.81V76.31C548.51,73.74,548.16,71.84,547.45,70.6z"/>
			<path class="st1" d="M601.38,97.49l-9.08-12.1v17.4h-6.81V61.94c0-2.57-0.35-4.47-1.06-5.71c-0.71-1.23-2.12-1.85-4.24-1.85
				h-1.51v-1.51h6.81c1.86,0,3.26,0.24,4.2,0.72c0.93,0.48,1.6,1.35,2,2.61c0.4,1.26,0.6,3.18,0.6,5.75v22.31l9.46-12.1
				c1.31-1.61,2.7-2.84,4.16-3.67c1.46-0.83,3.35-1.25,5.67-1.25h2.27v1.89c-1.36,0-2.67,0.28-3.93,0.83
				c-1.26,0.56-2.34,1.41-3.25,2.57l-8.32,10.59l9.46,12.1c1.46,1.92,2.84,3.35,4.12,4.31c1.29,0.96,2.69,1.56,4.2,1.82v1.44
				c-1.11,0.5-2.37,0.76-3.78,0.76C608.06,103.54,604.4,101.52,601.38,97.49z"/>
		</g>
	</g>
</g>
<g>
	<g>
		<path class="st1" d="M127.16,57.88L127.16,57.88c0.05,0.11,0.12,0.21,0.19,0.32C127.29,58.09,127.22,57.99,127.16,57.88z
			 M108.76,119.38c0.03-0.02,0.06-0.05,0.1-0.08c0.01,0,0.02-0.01,0.02-0.02c0.01-0.01,0.02-0.03,0.03-0.05
			C108.86,119.29,108.81,119.34,108.76,119.38z M106.22,117.73c0,0,0,0,0-0.01l-0.01-0.01c0-0.01,0-0.01,0-0.02l-0.01-0.01v0.7
			l0.01,0.01c0,0,0.01,0,0.01,0.01c0.13,0.11,0.28,0.21,0.39,0.31v-0.01C106.5,118.43,106.36,118.12,106.22,117.73z"/>
	</g>
	<g>
		<path class="st2" d="M106.22,117.73c0,0,0,0,0-0.01l-0.01-0.01c0-0.01,0-0.01,0-0.02l-0.01-0.01v0.7l0.01,0.01
			c0,0,0.01,0,0.01,0.01c0.13,0.11,0.28,0.21,0.39,0.31v-0.01C106.5,118.43,106.36,118.12,106.22,117.73z M106.23,119.32v0.01
			c0.08,0.01,0.15,0.02,0.22,0.03C106.38,119.35,106.3,119.33,106.23,119.32z M107.17,119.45h-0.09c0.04,0.01,0.07,0.01,0.1,0.01
			C107.18,119.46,107.18,119.46,107.17,119.45z M70.57,50.1h-0.02"/>
	</g>
	<g>
		<path class="st2" d="M106.88,113.84c-0.02,0.02-0.04,0.04-0.06,0.06h-0.01c0.02,0.02,0.04,0.04,0.06,0.06v-0.01
			c0.02-0.05,0.04-0.09,0.06-0.14v-0.01C106.92,113.81,106.9,113.82,106.88,113.84z M108.76,119.38c-0.02,0.02-0.03,0.03-0.05,0.05
			c0.03-0.01,0.05-0.03,0.07-0.05c0.03-0.02,0.06-0.05,0.08-0.08c0.01,0,0.02-0.01,0.02-0.02c0.01-0.01,0.02-0.03,0.03-0.05
			C108.86,119.29,108.81,119.34,108.76,119.38z M148.18,51.8h-0.02"/>
		<path class="st1" d="M107.36,146.06c-0.1,0.3-0.19,0.58-0.28,0.85c-0.04,0.13-0.08,0.26-0.12,0.39c-0.07,0.24-0.14,0.47-0.2,0.67
			c0.01,0,0.01,0,0.02,0c0.35-1.21,1-3.25,2.04-5.55C108.2,143.76,107.72,145.01,107.36,146.06z M110.01,140.01
			c-0.34,0.61-0.65,1.22-0.92,1.82c0.28-0.58,0.58-1.18,0.92-1.78c0.01-0.01,0.01-0.03,0.02-0.04v-0.04
			C110.02,139.98,110.02,140,110.01,140.01z M108.76,119.38c-0.02,0.02-0.03,0.03-0.05,0.05c0.03-0.01,0.05-0.03,0.07-0.05
			c0.03-0.02,0.06-0.05,0.08-0.08c0.01,0,0.02-0.01,0.02-0.02c0.01-0.01,0.02-0.03,0.03-0.05
			C108.86,119.29,108.81,119.34,108.76,119.38z M106.23,119.32v0.01c0.08,0.01,0.15,0.02,0.22,0.03
			C106.38,119.35,106.3,119.33,106.23,119.32z M107.17,119.45h-0.09c0.04,0.01,0.07,0.01,0.1,0.01
			C107.18,119.46,107.18,119.46,107.17,119.45z M106.88,113.84c0.02-0.01,0.03-0.02,0.05-0.03v-0.01
			C106.92,113.81,106.9,113.82,106.88,113.84z M106.82,113.9h-0.01c0.02,0.02,0.04,0.04,0.06,0.06v-0.01
			C106.85,113.93,106.84,113.92,106.82,113.9z M106.21,117.71c0-0.01,0-0.01,0-0.02l-0.01-0.01v0.7l0.01,0.01c0,0,0.01,0,0.01,0.01
			v-0.67C106.22,117.73,106.22,117.73,106.21,117.71L106.21,117.71z"/>
		<path class="st1" d="M106.22,119.33v28.52c0.09,0.02,0.18,0.04,0.26,0.06h0.01c0.01,0,0.01,0,0.02,0
			c0.08,0.02,0.16,0.04,0.23,0.06h0.01c0.06-0.2,0.12-0.43,0.2-0.67c0.04-0.13,0.08-0.26,0.12-0.39c0.08-0.26,0.18-0.55,0.28-0.85
			c0.36-1.05,0.84-2.3,1.46-3.64c0.08-0.2,0.17-0.39,0.27-0.59c0.27-0.6,0.58-1.21,0.92-1.82c0.01-0.01,0.01-0.03,0.02-0.04v-20.71
			c8.1-1.41,30.45-6.65,39.75-22.74c10.33-17.93,0.87-43.2-1.01-47.85c-0.16-0.41-0.55-0.65-0.98-0.65h-0.14
			c-2.84,0.39-12.69,2.01-22.57,6.65h-0.01c-6.24-9.03-14.04-15.41-16.32-17.19c-0.21-0.15-0.43-0.23-0.66-0.23
			c-0.22,0-0.45,0.09-0.65,0.23c-2.27,1.79-10.14,8.23-16.4,17.33c-9.97-4.75-20.02-6.39-22.88-6.79h-0.16
			c-0.41,0-0.8,0.25-0.96,0.65c-1.9,4.65-11.34,29.92-0.98,47.85c9.42,16.36,32.4,21.5,40.14,22.8h0.03 M127.15,57.88
			c0.06,0.11,0.13,0.21,0.19,0.32C127.27,58.09,127.2,57.99,127.15,57.88L127.15,57.88z M108.09,41.86
			c3.13,2.62,8.82,7.8,13.57,14.55c-5.16,2.8-10.08,6.51-13.76,11.38c-3.62-4.77-8.43-8.43-13.47-11.22
			C99.18,49.75,104.92,44.5,108.09,41.86z M104.08,111.4c-7.1-6.75-17.6-19.1-17.6-32.97c0-6.75,2.48-13.12,5.85-18.69h0.01
			c5.1,2.8,9.93,6.53,13.28,11.48C98.11,84.38,101.18,101.41,104.08,111.4c0.44,1.45,0.87,2.76,1.24,3.89 M107.89,110.79
			c-2.66-8.8-5.57-23.74,0-35.63C113.46,87.05,110.55,101.99,107.89,110.79z M111.52,111.97c-0.1,0.31-0.19,0.61-0.29,0.9
			c0.09-0.29,0.18-0.59,0.28-0.9c2.95-9.89,6.28-27.34-1.39-40.77c3.46-5.06,8.41-8.82,13.63-11.65c0.28-0.15,0.57-0.3,0.85-0.44
			c-0.29,0.14-0.57,0.29-0.85,0.45c3.42,5.61,5.96,12.03,5.96,18.87C129.71,92.7,118.62,105.34,111.52,111.97z"/>
		<path class="st1" d="M127.35,58.2c-0.07-0.11-0.14-0.21-0.2-0.32h0.01C127.22,57.99,127.29,58.09,127.35,58.2z"/>
	</g>
	<g>
		<g>
			<path class="st1" d="M143.04,132.93c-2.19-1.21-13.63-7.02-22.96-2.97c-4.69,2.02-7.92,6.13-10.05,10.01
				c-0.01,0.01-0.01,0.03-0.02,0.04c-0.34,0.61-0.65,1.22-0.92,1.82c-0.1,0.2-0.19,0.39-0.27,0.59c-0.62,1.34-1.1,2.59-1.46,3.64
				c-0.1,0.3-0.19,0.58-0.28,0.85c-0.04,0.13-0.08,0.26-0.12,0.39c-0.07,0.24-0.14,0.47-0.2,0.67c-0.18,0.65-0.29,1.08-0.31,1.17
				l-0.24,1.07l-0.01,0.04l-0.06,0.27l0.06,0.04l0.01,0.01l1.14,0.64c0.12,0.08,0.94,0.55,2.26,1.17h0.01
				c0.12,0.06,0.25,0.12,0.39,0.2c2.97,1.35,8.06,3.23,13.39,3.23c2.44,0,4.93-0.39,7.29-1.41c9.31-4.03,12.89-16.35,13.53-18.79
				C144.47,134.57,144,133.46,143.04,132.93z M136.84,143.45c-1.8,3.03-4.3,5.98-7.67,7.45c-6.75,2.93-15.39-0.72-18.6-2.31
				c1.02-3.42,4.28-12.2,11.03-15.12c6.77-2.93,15.53,0.78,18.6,2.29C139.7,137.39,138.62,140.44,136.84,143.45z"/>
		</g>
		<g>
			<path class="st1" d="M109.6,150.12l-0.08-1.25l-1.17-0.43c-0.08-0.04-0.67-0.25-1.57-0.47c-0.01,0-0.01,0-0.02,0h-0.01
				c-0.07-0.02-0.15-0.04-0.23-0.06c-0.01,0-0.01,0-0.02,0h-0.01c-0.08-0.02-0.17-0.04-0.26-0.06c-0.01,0-0.01,0-0.02,0h-0.01
				c-3.11-0.72-8.92-1.47-12.94,1.56c-0.49,0.37-0.94,0.8-1.37,1.27c-3.46,3.87-2.66,8.7-0.33,11.77c1.64,2.17,4.34,3.87,7.41,3.87
				c1.29,0,2.64-0.31,4.01-0.98c0.57-0.27,1.11-0.59,1.6-0.96c3.34-2.52,4.5-6.98,4.87-10.21v-0.02h0.01v-0.01l0.01-0.01v-0.01
				c0.06-0.63,0.1-1.22,0.14-1.73v-0.01C109.66,151.11,109.62,150.25,109.6,150.12z M105.05,156.75c-0.51,1.8-1.39,3.52-2.78,4.56
				c-0.29,0.23-0.61,0.43-0.96,0.59c-2.89,1.41-5.42-0.06-6.69-1.76c-1.29-1.7-2.03-4.52,0.12-6.94c0.27-0.29,0.53-0.53,0.84-0.76
				c1.41-1.08,3.38-1.43,5.3-1.43c1.82,0,3.62,0.33,4.93,0.65C105.77,153.07,105.59,154.95,105.05,156.75z"/>
		</g>
	</g>
	<g>
		<path class="st1" d="M106.93,113.81c-0.01,0.06-0.03,0.09-0.05,0.15h-0.01v-0.01c-0.02-0.02-0.03-0.03-0.05-0.05
			c0.02-0.02,0.04-0.04,0.06-0.06C106.9,113.83,106.91,113.82,106.93,113.81z"/>
		<line class="st1" x1="106.93" y1="113.8" x2="106.94" y2="113.8"/>
		<path class="st1" d="M110.01,140.01v12.79c0,0.53-0.2,0.96-0.53,1.31l-0.01,0.01v0.01h-0.01v0.02l-0.01,0.01
			c-0.35,0.34-0.81,0.54-1.34,0.54c-1.04,0-1.9-0.84-1.9-1.9v-4.95c0.01,0,0.01,0,0.02,0c0.09,0.02,0.18,0.04,0.26,0.06h0.01
			c0.01,0,0.01,0,0.02,0c0.08,0.02,0.16,0.04,0.23,0.06h0.01c0.06-0.2,0.13-0.43,0.2-0.67c0.04-0.13,0.08-0.26,0.12-0.39
			c0.09-0.27,0.18-0.55,0.28-0.85c0.36-1.05,0.84-2.3,1.46-3.64c0.08-0.2,0.17-0.39,0.27-0.59
			C109.36,141.23,109.67,140.62,110.01,140.01z"/>
		<path class="st1" d="M108.91,119.23c-0.01,0.02-0.02,0.04-0.03,0.05c0,0.01-0.01,0.02-0.02,0.02c-0.02,0.03-0.05,0.06-0.08,0.08
			c-0.02,0.02-0.04,0.04-0.07,0.05c0.02-0.02,0.03-0.03,0.05-0.05C108.81,119.34,108.86,119.29,108.91,119.23z"/>
	</g>
</g>
</svg>
